<svg xmlns="http://www.w3.org/2000/svg" viewBox="0 0 640 480"><style><![CDATA[.B{fill-rule:evenodd}.C{fill:#005bae}]]></style><g class="B"><path d="M0 0h640v53.3H0z" class="C"/><path fill="#fff" d="M0 53.3h640v53.4H0z"/><path d="M0 106.7h640V160H0z" class="C"/><path fill="#fff" d="M0 160h640v53.3H0z"/></g><g class="C"><path d="M0 0h266.7v266.7H0z"/><path d="M0 213.3h640v53.4H0z" class="B"/></g><path fill="#fff" d="M0 266.7h640V320H0z" class="B"/><path d="M0 320h640v53.3H0z" class="B C"/><g fill="#fff" class="B"><path d="M0 373.3h640v53.4H0z"/><path d="M106.667 0H160v266.667h-53.333z"/><path d="M0 106.667h266.667V160H0z"/></g><path d="M0 426.7h640V480H0z" class="C"/></svg>