<svg xmlns="http://www.w3.org/2000/svg" viewBox="0 0 640 480" fill-rule="evenodd"><path fill="#bd3d44" d="M0 0h912v36.938H0zm0 73.875h912v36.938H0zm0 73.78h912v37.03H0zm0 73.875h912v36.938H0zm0 73.875h912v36.938H0zm0 73.78h912v36.938H0zm0 73.875h912V480H0z"/><path fill="#fff" d="M0 36.938h912v36.938H0zm0 73.875h912v36.844H0zm0 73.78h912v36.938H0zm0 73.875h912v36.938H0zm0 73.875h912v36.938H0zm0 73.78h912v36.938H0z"/><path fill="#192f5d" d="M0 0h364.78v258.47H0z"/><path fill="#fff" d="M30.375 11.063l3.375 10.22h10.688l-8.625 6.28 3.28 10.313-8.72-6.375-8.625 6.28 3.28-10.22-8.72-6.28h10.875zm60.844 0l3.28 10.22h10.78l-8.72 6.28 3.28 10.313L91.22 31.5l-8.72 6.28 3.28-10.22-8.625-6.28h10.688zm60.75 0l3.375 10.22h10.594l-8.625 6.28 3.28 10.313-8.72-6.375-8.625 6.28 3.28-10.22-8.72-6.28h10.78zm60.844 0l3.28 10.22h10.78l-8.72 6.28 3.375 10.313-8.72-6.375-8.72 6.28 3.375-10.22-8.72-6.28h10.688zm60.75 0l3.375 10.22h10.688L279 27.563l3.28 10.313-8.72-6.375-8.625 6.28 3.28-10.22-8.625-6.28h10.688zm60.844 0l3.28 10.22h10.78l-8.72 6.28 3.375 10.313-8.72-6.375-8.72 6.28 3.375-10.22-8.72-6.28h10.78zM60.844 36.938l3.28 10.22h10.78l-8.72 6.28 3.188 10.22-8.437-6.28-8.72 6.28 3.094-10.22-8.437-6.28h10.688zm60.75 0l3.375 10.22h10.687l-8.72 6.28 3.375 10.22-8.72-6.28-8.72 6.28 3.375-10.22-8.72-6.28h10.78zm60.844 0l3.28 10.22h10.78l-8.72 6.28 3.28 10.22-8.625-6.28-8.72 6.28 3.28-10.22-8.625-6.28h10.688zm60.75 0l3.375 10.22h10.688l-8.72 6.28 3.375 10.22-8.72-6.28-8.625 6.28 3.28-10.22-8.72-6.28H240zm60.844 0l3.28 10.22h10.78l-8.72 6.28 3.28 10.22-8.625-6.28-8.72 6.28 3.28-10.22-8.625-6.28h10.688zM30.375 62.72l3.375 10.406h10.688l-8.625 6.28 3.28 10.22-8.72-6.375-8.625 6.375 3.28-10.312-8.72-6.28h10.875zm60.844 0L94.5 73.03h10.78l-8.72 6.28 3.28 10.22-8.625-6.375-8.72 6.375 3.28-10.312-8.625-6.28h10.688zm60.75 0l3.375 10.312h10.594l-8.625 6.28 3.28 10.22-8.72-6.375-8.625 6.375 3.28-10.312-8.72-6.28h10.78zm60.844 0l3.28 10.312h10.78l-8.72 6.28 3.375 10.22-8.72-6.375-8.72 6.375 3.375-10.312-8.72-6.28h10.688zm60.75 0l3.375 10.312h10.688L279 79.313l3.28 10.22-8.72-6.375-8.625 6.375 3.28-10.312-8.625-6.28h10.688zm60.844 0l3.28 10.312h10.78l-8.72 6.28 3.375 10.22-8.72-6.375-8.72 6.375 3.375-10.312-8.72-6.28h10.78zM60.844 88.594l3.28 10.22h10.78l-8.72 6.28 3.28 10.313-8.625-6.375-8.72 6.28 3.28-10.22-8.625-6.28H57.47zm60.75 0l3.375 10.22h10.687l-8.72 6.28 3.375 10.313-8.72-6.375-8.72 6.28 3.375-10.22-8.72-6.28h10.78zm60.844 0l3.28 10.22h10.78l-8.72 6.28 3.28 10.313-8.625-6.375-8.72 6.28 3.28-10.22-8.625-6.28h10.688zm60.75 0l3.375 10.22h10.688l-8.625 6.28 3.28 10.313-8.72-6.375-8.625 6.28 3.28-10.22-8.72-6.28H240zm60.844 0l3.28 10.22h10.78l-8.72 6.28 3.28 10.313-8.625-6.375-8.72 6.28 3.28-10.22-8.625-6.28h10.688zM30.375 114.47l3.375 10.22h10.688l-8.625 6.28 3.28 10.313-8.72-6.375-8.625 6.28 3.28-10.22-8.72-6.28h10.875zm60.844 0l3.28 10.22h10.78l-8.72 6.28 3.28 10.22-8.625-6.28-8.72 6.28 3.28-10.22-8.625-6.28h10.688zm60.75 0l3.375 10.22h10.594l-8.625 6.28 3.28 10.313-8.72-6.375-8.625 6.28 3.28-10.22-8.72-6.28h10.78zm60.844 0l3.28 10.22h10.78l-8.72 6.28 3.375 10.313-8.72-6.375-8.72 6.28 3.375-10.22-8.72-6.28h10.688zm60.75 0l3.375 10.22h10.688L279 130.97l3.28 10.313-8.72-6.375-8.625 6.28 3.28-10.22-8.625-6.28h10.688zm60.844 0l3.28 10.22h10.78l-8.72 6.28 3.375 10.313-8.72-6.375-8.72 6.28 3.375-10.22-8.72-6.28h10.78zM60.844 140.344l3.28 10.22h10.78l-8.72 6.28 3.28 10.22-8.625-6.375-8.72 6.375 3.28-10.312-8.625-6.28H57.47zm60.75 0l3.375 10.22h10.687l-8.72 6.28 3.375 10.22-8.72-6.375-8.72 6.375 3.375-10.312-8.72-6.28h10.78zm60.844 0l3.28 10.22h10.78l-8.72 6.28 3.28 10.22-8.625-6.375-8.72 6.375L177 156.75l-8.625-6.28h10.688zm60.75 0l3.375 10.22h10.688l-8.625 6.28 3.28 10.22-8.72-6.375-8.625 6.375 3.28-10.312-8.72-6.28H240zm60.844 0l3.28 10.22h10.78l-8.72 6.28 3.28 10.22-8.625-6.375-8.72 6.375 3.28-10.312-8.625-6.28h10.688zm-273.656 25.78l3.375 10.313h10.688l-8.625 6.28 3.28 10.125-8.72-6.28-8.625 6.28 3.28-10.22-8.72-6.28h10.875zm60.844 0l3.28 10.313h10.78l-8.72 6.28 3.375 10.125-8.72-6.28-8.72 6.28 3.375-10.22-8.72-6.28h10.688zm60.75 0l3.375 10.313h10.594l-8.625 6.28 3.28 10.125-8.72-6.28-8.625 6.28 3.28-10.22-8.72-6.28h10.78zm60.844 0l3.28 10.313h10.78l-8.72 6.28 3.375 10.125-8.72-6.28-8.72 6.28 3.375-10.22-8.72-6.28h10.688zm60.75 0l3.375 10.313h10.688L279 182.72l3.28 10.125-8.72-6.28-8.625 6.28 3.28-10.22-8.625-6.28h10.688zm60.844 0l3.28 10.313h10.78l-8.72 6.28 3.375 10.125-8.72-6.28-8.72 6.28 3.375-10.22-8.72-6.28h10.78zM60.844 192l3.28 10.22h10.78l-8.72 6.28 3.28 10.313-8.625-6.375-8.72 6.28 3.28-10.22-8.625-6.28H57.47zm60.75 0l3.375 10.22h10.687l-8.72 6.28 3.375 10.313-8.72-6.375-8.72 6.28 3.375-10.22-8.72-6.28h10.78zm60.844 0l3.28 10.22h10.78l-8.72 6.28 3.28 10.313-8.625-6.375-8.72 6.28L177 208.5l-8.625-6.28h10.688zm60.75 0l3.375 10.22h10.688l-8.625 6.28 3.28 10.313-8.72-6.375-8.625 6.28 3.28-10.22-8.72-6.28H240zm60.844 0l3.28 10.22h10.78l-8.72 6.28 3.28 10.313-8.625-6.375-8.72 6.28 3.28-10.22-8.625-6.28h10.688zM30.375 217.875l3.375 10.22h10.688l-8.625 6.28 3.28 10.22-8.72-6.28-8.625 6.28 3.28-10.312-8.72-6.28h10.875zm60.844 0l3.28 10.22h10.78l-8.72 6.28 3.375 10.22-8.72-6.28-8.72 6.28 3.375-10.312-8.72-6.28h10.688zm60.75 0l3.375 10.22h10.594l-8.437 6.28 3.28 10.22-8.72-6.28-8.625 6.28 3.28-10.312L138 228h10.78zm60.844 0l3.28 10.22h10.78l-8.72 6.28 3.375 10.22-8.72-6.28-8.72 6.28 3.375-10.312-8.72-6.28h10.688zm60.75 0l3.375 10.22h10.688l-8.625 6.28 3.28 10.22-8.72-6.28-8.625 6.28 3.28-10.312-8.625-6.28h10.688zm60.844 0l3.28 10.22h10.78l-8.72 6.28 3.375 10.22-8.72-6.28-8.72 6.28 3.375-10.312-8.72-6.28h10.78z"/></svg>